<svg width="1920" height="284" viewBox="0 0 1920 284" fill="none" xmlns="http://www.w3.org/2000/svg">
<path d="M0 61.045V122.09L378.931 122.332C751.842 122.694 757.861 122.694 761.98 124.991C764.304 126.321 766.627 128.134 767.049 128.98C767.472 129.826 768.528 130.552 769.373 130.552C770.218 130.552 771.696 132.002 772.753 133.936C773.703 135.75 775.604 138.651 776.871 140.464C778.878 143.244 780.568 149.288 782.152 159.442C782.363 160.409 782.68 166.937 783.102 173.948C783.419 180.959 783.947 188.091 784.264 189.783C784.475 191.476 784.898 194.014 785.109 195.465C785.848 199.696 791.129 207.916 794.508 209.971C796.198 210.938 800 211.784 802.852 211.784C807.287 211.663 808.449 211.179 811.195 207.795C816.053 201.751 817.531 197.52 817.426 190.025C817.32 180.234 817.003 176.849 816.158 175.761C815.63 175.278 815.314 173.465 815.314 171.651C815.314 169.838 814.997 168.025 814.574 167.541C814.152 167.179 813.729 166.091 813.624 165.245C813.518 164.398 812.885 161.497 812.356 158.596C810.455 149.409 814.786 136.596 820.911 132.728C823.868 130.914 828.092 130.31 831.894 131.156C836.119 132.002 843.195 140.101 846.046 147.354C848.053 152.431 848.158 154.244 847.525 171.047C846.891 187.729 846.363 196.432 845.941 196.432C845.413 196.432 844.779 208.037 844.356 222.421C843.723 248.29 847.842 261.95 858.614 269.686C862.521 272.466 864.528 273.192 869.809 273.192C874.35 273.192 876.673 272.587 877.624 271.378C878.363 270.411 879.525 269.565 880.264 269.565C881.743 269.565 885.439 261.587 886.706 255.905C887.129 253.971 886.918 250.466 886.284 248.048C885.65 245.51 884.7 240.554 884.066 236.927C880.581 217.707 879.736 212.993 879.208 209.729C878.891 207.674 878.363 205.135 878.046 203.927C877.729 202.718 877.307 200.058 877.096 197.883C876.885 195.707 876.462 191.355 876.04 188.091C874.772 178.3 876.356 165.245 879.314 159.926C884.277 151.343 893.782 149.53 900.224 155.937C904.871 160.651 909.096 175.278 909.729 189.179C911.208 217.828 913.426 228.949 919.234 235.96C923.248 240.795 927.366 242.367 933.597 241.158C936.766 240.554 938.878 238.982 942.363 234.51C949.439 225.564 951.023 214.201 948.911 190.146C947.96 179.992 949.228 175.278 954.086 170.08C957.782 166.212 966.759 162.827 972.462 163.31C979.855 163.915 990.838 172.497 990.838 177.695C990.838 178.058 991.155 178.783 991.683 179.509C992.951 181.322 995.063 190.871 995.591 197.641C996.224 205.619 996.224 219.762 995.591 236.927C995.38 244.543 995.591 252.4 996.013 254.455C996.436 256.389 997.069 260.015 997.281 262.312C998.231 270.653 1002.98 279.477 1008.26 282.62C1011.64 284.796 1019.04 284.313 1023.89 281.774C1033.19 276.939 1037.52 266.06 1037.62 247.806C1037.62 241.521 1037.31 233.905 1036.78 230.883C1036.36 227.861 1035.72 222.421 1035.41 218.795C1035.09 215.169 1034.56 210.454 1034.35 208.52C1034.03 206.465 1033.51 196.553 1033.19 186.52C1032.66 168.388 1032.66 168.025 1035.41 161.497C1038.79 153.519 1042.48 151.222 1047.13 154.003C1051.99 156.904 1052.83 160.047 1052.94 174.794C1052.94 187.608 1053.04 188.333 1056.11 193.652C1058.32 197.399 1060.65 199.817 1063.6 201.146C1071.42 204.773 1076.49 203.08 1081.98 194.981C1084.83 190.871 1085.15 189.542 1085.15 181.926C1085.15 177.212 1084.83 169.959 1084.41 165.607C1083.88 161.256 1083.25 151.948 1082.93 144.816C1082.3 132.728 1082.4 131.881 1084.41 130.673C1087.47 128.859 1091.59 128.98 1095.18 131.156C1099.93 133.936 1100.78 136.838 1099.93 147.596C1099.19 158.475 1100.46 162.343 1105.95 165.97C1117.36 173.465 1131.93 160.651 1136.37 139.255C1137.11 135.629 1138.69 131.519 1139.96 129.947C1142.39 127.046 1149.89 123.782 1156.96 122.815C1159.29 122.453 1331.96 122.211 1540.65 122.09H1920V61.045V0H960H0V61.045Z" fill="#FFBCE8" fill-opacity="0.65"/>
</svg>
